Coordinates
version=1
nRows=5
nColumns=40
inDegrees=yes

Units are S.I. units (second, meters, Newtons, ...)
If the header above contains a line with 'inDegrees', this indicates whether rotational values are in degrees (yes) or radians (no).

endheader
time	pelvis_tilt	pelvis_list	pelvis_rotation	pelvis_tx	pelvis_ty	pelvis_tz	hip_flexion_r	hip_adduction_r	hip_rotation_r	knee_angle_r	knee_angle_r_beta	ankle_angle_r	subtalar_angle_r	mtp_angle_r	hip_flexion_l	hip_adduction_l	hip_rotation_l	knee_angle_l	knee_angle_l_beta	ankle_angle_l	subtalar_angle_l	mtp_angle_l	lumbar_extension	lumbar_bending	lumbar_rotation	arm_flex_r	arm_add_r	arm_rot_r	elbow_flex_r	pro_sup_r	wrist_flex_r	wrist_dev_r	arm_flex_l	arm_add_l	arm_rot_l	elbow_flex_l	pro_sup_l	wrist_flex_l	wrist_dev_l
     12.17500000	     -8.08427033	     -4.66182622	     -0.78178788	     -0.23440476	      1.15317560	     -0.02334445	     59.18797282	     -3.68199693	     -1.78835066	    101.59424901	      1.77315415	     12.96050761	      1.65206225	      0.00000000	     62.15400421	     -9.40416512	      8.37287978	     65.17718940	      1.13755655	      2.52275228	     -1.19064359	      0.00000000	    -60.64492910	      3.76075207	      5.97834174	     85.76919902	    -12.95277478	     55.33037570	     23.12144062	     72.57791401	      0.00000000	      0.00000000	     78.10858181	     -9.48672928	     24.72036496	     32.79340990	     74.84384685	      0.00000000	      0.00000000
     12.18333333	     -8.08497670	     -5.26038082	     -0.83036285	     -0.23416487	      1.15279740	     -0.02302265	     60.92660770	     -3.47751026	     -2.09894930	    104.05159543	      1.81604293	     13.80434279	      1.86911263	      0.00000000	     60.16984314	    -10.03603329	      8.50128463	     62.55172133	      1.09173349	      1.27764816	     -1.14104443	      0.00000000	    -60.65343577	      4.26099809	      6.53136273	     85.80446999	    -12.89531250	     55.42429038	     23.21924828	     72.57812936	      0.00000000	      0.00000000	     77.91984030	     -9.50464184	     24.46713190	     32.77637843	     74.74529092	      0.00000000	      0.00000000
     12.19166667	     -8.09162816	     -4.64486632	     -1.04690508	     -0.23408006	      1.15255618	     -0.02345993	     62.99552179	     -4.12926791	     -1.15620156	    106.60240420	      1.86056294	     14.03599812	      3.57034450	      0.00000000	     57.86313749	     -9.91505085	      7.43782041	     59.94780476	      1.04628657	     -0.60962323	     -1.76196806	      0.00000000	    -60.58875752	      3.92302479	      6.03583978	     85.96014243	    -12.70317285	     55.97747184	     22.88152172	     72.83862388	      0.00000000	      0.00000000	     77.82354129	     -9.57478911	     24.03621597	     32.66077406	     75.00164875	      0.00000000	      0.00000000
     12.20000000	     -8.21200928	     -5.27740400	     -1.01174569	     -0.23383569	      1.15229279	     -0.02302680	     64.82888667	     -3.99226989	     -1.62722878	    108.62379367	      1.89584285	     14.82432210	      3.71023678	      0.00000000	     56.08080774	    -10.49986631	      7.68057120	     57.56894079	      1.00476756	     -1.58999858	     -1.60197038	      0.00000000	    -60.50039072	      4.49961962	      6.58049815	     85.97636552	    -12.64524323	     55.96898427	     22.98845799	     72.77638517	      0.00000000	      0.00000000	     77.63603873	     -9.60192466	     23.86156073	     32.66898686	     74.88589100	      0.00000000	      0.00000000
     12.20833333	     -8.32060353	     -5.75748353	     -0.95698041	     -0.23374819	      1.15225380	     -0.02288019	     66.65732810	     -3.98433848	     -1.87509676	    110.49172196	      1.92844434	     16.76809651	      3.62101727	      0.00000000	     54.33591800	    -11.00918858	      7.69875975	     55.40688733	      0.96703261	     -2.94888167	     -1.33463690	      0.00000000	    -60.44044350	      5.00485296	      6.92476011	     86.01646196	    -12.56486661	     56.08938011	     23.05886792	     72.80852896	      0.00000000	      0.00000000	     77.51938193	     -9.65096816	     23.60182227	     32.64489581	     74.82250581	      0.00000000	      0.00000000
